<svg id="logo" data-name="Layer 1" xmlns="http://www.w3.org/2000/svg" viewBox="0 0 168 168"><title>logo-simple</title><path d="M168,141.92H0L84,26.08Zm-154.1-7.1H154.1L84,38.14Z"/><path d="M82.15,93.29c0.29-.58.29-0.68-0.19-0.68H76.32a0.58,0.58,0,0,0-.68.39c-1.07,3-5.06,13.23-5.06,13.23S66.11,95.91,64.94,92.9c-0.1-.29-0.29-0.29-0.68-0.29H58c-0.49,0-.49.1-0.19,0.68,4.47,9.63,7.78,16.24,12,24.32a0.61,0.61,0,0,0,.49.49,0.87,0.87,0,0,0,.58-0.49c4.47-9.63,6.61-14.3,11.28-24.32h0Zm27.51,23.05c-2.14-3.4-4.18-7.1-5.15-8.56,2.24-1.07,3.4-3.4,3.4-6.81,0-4.47-3-8.36-8.56-8.36H88.08a0.25,0.25,0,0,0-.29.29v24c0,0.39,0,.29.29,0.29H94c0.29,0,.29,0,0.29-0.29V110l4.18-.1s2.62,4.18,3.89,6.52c0.29,0.68.49,0.78,0.78,0.78h6.42c0.49,0.1.58-.1,0.1-0.88h0ZM101,101.46c0,2.14-1.07,3.6-3,3.6l-3.69.19v-7.2h3.6c2.14,0,3.11,1.46,3.11,3.4h0Z"/></svg>