<svg id="logo" data-name="Layer 1" xmlns="http://www.w3.org/2000/svg" viewBox="0 0 128.41 144.68"><title>Untitled-1</title><path d="M128.41,88.48H0L64.2,0ZM10.62,83.06H117.79L64.2,9.22Z"/><path d="M62.8,51.35c0.22-.47.2-0.5-0.17-0.5H58.32a0.47,0.47,0,0,0-.56.33C57,53.47,53.89,61.32,53.89,61.32s-3.34-7.94-4.26-10.25a0.45,0.45,0,0,0-.5-0.22H44.39c-0.36,0-.36.06-0.14,0.5,3.43,7.35,6,12.4,9.11,18.58a0.46,0.46,0,0,0,.36.33,0.62,0.62,0,0,0,.42-0.39C57.57,62.55,59.27,59,62.8,51.35h0ZM83.85,69c-1.62-2.62-3.2-5.43-3.93-6.57,1.7-.81,2.59-2.62,2.59-5.18a6.15,6.15,0,0,0-6.57-6.38H67.3c-0.08,0-.22,0-0.22.25V69.48c0,0.28,0,.25.22,0.25h4.57c0.19,0,.22,0,0.22-0.25V64.22l3.2-.06s2,3.2,3,5c0.25,0.5.36,0.56,0.58,0.56h4.93c0.31,0,.39-0.2.06-0.75h0ZM77.22,57.59c0,1.62-.84,2.73-2.34,2.79l-2.79.08V55h2.76a2.29,2.29,0,0,1,2.37,2.59h0Z"/><path d="M16.51,143.85c-1.1-1.78-2.17-3.69-2.67-4.46,1.15-.55,1.76-1.78,1.76-3.52a4.17,4.17,0,0,0-4.46-4.33H5.28c-0.06,0-.15,0-0.15.17v12.47c0,0.19,0,.17.15,0.17h3.1c0.13,0,.15,0,0.15-0.17v-3.57l2.17,0s1.38,2.17,2,3.4c0.17,0.34.25,0.38,0.4,0.38h3.35c0.21,0,.26-0.13,0-0.51h0ZM12,136.12A1.66,1.66,0,0,1,10.43,138l-1.89.06v-3.7h1.87A1.55,1.55,0,0,1,12,136.12h0Zm19.32,8v-2.44c0-.25,0-0.25-0.21-0.25l-5.54.06v-2.19h5.29c0.17,0,.19,0,0.19-0.26v-2.31c0-.23,0-0.26-0.19-0.26H25.59v-2.14L31,134.36c0.15,0,.21-0.09.21-0.26v-2.31c0-.23,0-0.25-0.21-0.25H22.45c-0.19,0-.17,0-0.17.19V144.1c0,0.23,0,.26.21,0.26h8.64c0.19,0,.21,0,0.21-0.26h0Zm16.72-7.64c0-2.91-1.68-4.91-4.5-4.91H37.89c-0.08,0-.17,0-0.17.17v12.47c0,0.19,0,.17.17,0.17h3.06c0.15,0,.17,0,0.17-0.17v-3s2.14,0,2.68-.08c2.42-.28,4.25-1.51,4.25-4.61h0Zm-3.5-.11a1.77,1.77,0,0,1-1.85,2l-1.59.06v-4h1.55a1.78,1.78,0,0,1,1.89,2h0Zm19.91,3.36v-8c0-.13,0-0.13-0.09-0.13h-3.1c-0.11,0-.11,0-0.11.13v8.43a2,2,0,0,1-4,0V131.7c0-.15,0-0.15-0.13-0.15H53.89c-0.09,0-.09,0-0.09.11v7.86c0,3.12,1.74,5.16,5.35,5.16,3.76,0,5.33-1.93,5.33-5h0Zm17.7,1.17a3.06,3.06,0,0,0-2.63-3.14,2.83,2.83,0,0,0,2.27-2.84c0-2.12-1.4-3.37-3.72-3.37H71.48c-0.17,0-.23,0-0.23.19V144.1c0,0.25,0,.26.17,0.26h7.14a3.31,3.31,0,0,0,3.61-3.48h0Zm-3.8-5.48a1.1,1.1,0,0,1-1.21,1.21H74.63v-2.42h2.53a1.09,1.09,0,0,1,1.21,1.21h0Zm0.28,4.93a1.23,1.23,0,0,1-1.3,1.38H74.63v-2.78h2.72a1.31,1.31,0,0,1,1.3,1.4h0Zm18.06,3.86v-2.74c0-.15,0-0.19-0.17-0.19l-4.74.09v-9.64c0-.15,0-0.17-0.17-0.17H88.57c-0.17,0-.17,0-0.17.17v12.47c0,0.19,0,.17.17,0.17h8c0.15,0,.15,0,0.15-0.17h0Zm8.93,0V131.72c0-.15,0-0.17-0.19-0.17h-3.14c-0.17,0-.17,0-0.17.17v12.47c0,0.19,0,.17.17,0.17h3.14c0.17,0,.19,0,0.19-0.17h0Zm18.81-3.42c0-.11,0-0.21-0.17-0.25l-2.84-.77c-0.15,0-.17,0-0.23.13a2.76,2.76,0,0,1-2.65,1.59,3.12,3.12,0,0,1-3.16-3.44c0-2,1.21-3.52,3.1-3.52a2.84,2.84,0,0,1,2.76,1.72c0,0.09.06,0.13,0.17,0.09l2.82-1.1c0.08,0,.15-0.11.06-0.34a6.09,6.09,0,0,0-5.88-3.61,6.7,6.7,0,0,0,.09,13.4,6.35,6.35,0,0,0,5.92-3.91h0Z"/><path d="M39.81,109c0.15-.32.13-0.34-0.11-0.34H36.76a0.32,0.32,0,0,0-.38.23c-0.55,1.55-2.63,6.88-2.63,6.88s-2.27-5.39-2.89-7a0.31,0.31,0,0,0-.34-0.15H27.31c-0.25,0-.25,0-0.09.34,2.32,5,4,8.41,6.18,12.61a0.31,0.31,0,0,0,.25.23,0.42,0.42,0,0,0,.28-0.26c2.32-5,3.48-7.39,5.88-12.57h0Zm17.55,6.11a6.71,6.71,0,1,0-6.71,6.69,6.64,6.64,0,0,0,6.71-6.69h0Zm-3.53,0a3.16,3.16,0,0,1-3.18,3.46c-2,0-3.18-1.51-3.18-3.46s1.13-3.48,3.18-3.48a3.17,3.17,0,0,1,3.18,3.48h0ZM67,121.31V108.84c0-.15,0-0.17-0.19-0.17H63.71c-0.17,0-.17,0-0.17.17v12.47c0,0.19,0,.17.17,0.17h3.14c0.17,0,.19,0,0.19-0.17h0Zm18.81-3.42c0-.11,0-0.21-0.17-0.25l-2.84-.77c-0.15,0-.17,0-0.23.13A2.76,2.76,0,0,1,80,118.59a3.12,3.12,0,0,1-3.16-3.44c0-2,1.21-3.52,3.1-3.52a2.84,2.84,0,0,1,2.76,1.72c0,0.09.06,0.13,0.17,0.09l2.82-1.1c0.08,0,.15-0.11.06-0.34a6.09,6.09,0,0,0-5.88-3.61,6.7,6.7,0,0,0,.09,13.4,6.35,6.35,0,0,0,5.92-3.91h0Zm14.85,3.33v-2.44c0-.25,0-0.25-0.21-0.25l-5.54.06V116.4h5.29c0.17,0,.19,0,0.19-0.26v-2.31c0-.23,0-0.26-0.19-0.26H95v-2.14l5.41,0.06c0.15,0,.21-0.09.21-0.26v-2.31c0-.23,0-0.25-0.21-0.25H91.81c-0.19,0-.17,0-0.17.19v12.36c0,0.23,0,.26.21,0.26h8.64c0.19,0,.21,0,0.21-0.26h0Z"/></svg>