<svg id="Layer_1" data-name="Layer 1" xmlns="http://www.w3.org/2000/svg" xmlns:xlink="http://www.w3.org/1999/xlink" viewBox="0 0 28.02 28.02"><defs><style>.cls-1{fill:none;}.cls-2{clip-path:url(#clip-path);}</style><clipPath id="clip-path" transform="translate(0.01 0.01)"><rect class="cls-1" width="28" height="28"/></clipPath></defs><title>phone</title><g class="cls-2"><path d="M10,23.14L5.57,27.57a1.61,1.61,0,0,1-2.28-.06l-0.76-.76L9.18,20.1l0.76,0.76A1.61,1.61,0,0,1,10,23.14m1.1-12A26.39,26.39,0,0,0,6.6,17.52l1.87,1.87L1.84,26l0,0h0A6.34,6.34,0,0,1,.48,23.91a7,7,0,0,1-.42-1.68C-0.41,18.3,1.42,12.88,7.14,7.15h0C12.88,1.42,18.3-.41,22.24.06a6.91,6.91,0,0,1,1.68.42A6.34,6.34,0,0,1,26,1.79h0l0,0L19.4,8.47,17.52,6.6a26.36,26.36,0,0,0-6.42,4.51M27.57,5.57L23.14,10a1.61,1.61,0,0,1-2.27-.06L20.1,9.18l6.64-6.64L27.51,3.3a1.61,1.61,0,0,1,.06,2.28" transform="translate(0.01 0.01)"/></g></svg>