<svg id="{{include.name}}-circle-svg" data-name="Layer 1" xmlns="http://www.w3.org/2000/svg" viewBox="0 0 168 168">
	<circle cx="84" cy="84" r="36.1"/>	
	<!-- lines -->
	<g id="spokes"><line class="cls-1" x1="84.67" y1="84" x2="84.67" y2="168"/>
		<line class="cls-1" x1="84.17" y1="84.27" x2="113.38" y2="163.21"/>
		<line class="cls-1" x1="84.17" y1="84.27" x2="139.06" y2="148.62"/>
		<line class="cls-1" x1="84.17" y1="84.27" x2="158.12" y2="126.27"/>
		<line class="cls-1" x1="84.17" y1="84.27" x2="168.26" y2="98.86"/>
		<line class="cls-1" x1="84.17" y1="84.27" x2="168.26" y2="69.69"/>
		<line class="cls-1" x1="84.17" y1="84.27" x2="158.12" y2="42.27"/>
		<line class="cls-1" x1="84.17" y1="84.27" x2="139.06" y2="19.92"/>
		<line class="cls-1" x1="84.17" y1="84.27" x2="113.38" y2="5.34"/>
		<line class="cls-1" x1="84.67" y1="84" x2="84.67"/>
		<line class="cls-1" x1="84.17" y1="84.27" x2="54.97" y2="5.34"/>
		<line class="cls-1" x1="84.17" y1="84.27" x2="29.29" y2="19.92"/>
		<line class="cls-1" x1="84.17" y1="84.27" x2="10.23" y2="42.27"/>
		<line class="cls-1" x1="84.17" y1="84.27" x2="0.09" y2="69.69"/>
		<line class="cls-1" x1="84.17" y1="84.27" x2="0.09" y2="98.86"/>
		<line class="cls-1" x1="84.17" y1="84.27" x2="10.23" y2="126.27"/>
		<line class="cls-1" x1="84.17" y1="84.27" x2="29.29" y2="148.62"/>
		<line class="cls-1" x1="84.17" y1="84.27" x2="54.97" y2="163.21"/></g>
	<path id="hub" d="M95.55,84.09c0,15.68-23.27,15.75-23.27,0S95.55,68.4,95.55,84.09Z" transform="translate(0.17)"/>
	<!-- outlines -->
	<path id="base" class="cls-1" d="M163,83.25a80,80,0,0,1-160,0C3,39.2,38.82,3,83,3S163,39.2,163,83.25Z"/>
	<path id="overlay" class="cls-1" d="M163,83.25a80,80,0,0,1-160,0C3,39.2,38.82,3,83,3S163,39.2,163,83.25Z"/>
	<!-- check -->
	<polyline id="check" class="cls-1" points="50.62 76.53 72.73 98.64 122.17 49.2"/>
</svg>